0
SECTION
2
HEADER
9
$ACADVER
1
AC1015
9
$INSUNITS
70
4
0
ENDSEC
0
SECTION
2
TABLES
0
TABLE
2
LAYER
70
8
0
LAYER
2
PANEL
70
0
62
7
6
CONTINUOUS
0
LAYER
2
DIN_RAIL
70
0
62
8
6
CONTINUOUS
0
LAYER
2
WIRE_DUCT
70
0
62
9
6
DASHED
0
LAYER
2
DEVICES
70
0
62
5
6
CONTINUOUS
0
LAYER
2
TERMINALS
70
0
62
3
6
CONTINUOUS
0
LAYER
2
CLEARANCE
70
0
62
1
6
DASHED
0
LAYER
2
DIMENSIONS
70
0
62
2
6
CONTINUOUS
0
LAYER
2
TEXT
70
0
62
7
6
CONTINUOUS
0
ENDTAB
0
ENDSEC
0
SECTION
2
ENTITIES
0
LINE
8
PANEL
10
0
20
0
30
0
11
750
21
0
31
0
0
LINE
8
PANEL
10
750
20
0
30
0
11
750
21
750
31
0
0
LINE
8
PANEL
10
750
20
750
30
0
11
0
21
750
31
0
0
LINE
8
PANEL
10
0
20
750
30
0
11
0
21
0
31
0
0
LINE
8
DIN_RAIL
10
35
20
640
30
0
11
720
21
640
31
0
0
LINE
8
DIN_RAIL
10
720
20
640
30
0
11
720
21
647.5
31
0
0
LINE
8
DIN_RAIL
10
720
20
647.5
30
0
11
35
21
647.5
31
0
0
LINE
8
DIN_RAIL
10
35
20
647.5
30
0
11
35
21
640
31
0
0
LINE
8
DIN_RAIL
10
35
20
480
30
0
11
720
21
480
31
0
0
LINE
8
DIN_RAIL
10
720
20
480
30
0
11
720
21
487.5
31
0
0
LINE
8
DIN_RAIL
10
720
20
487.5
30
0
11
35
21
487.5
31
0
0
LINE
8
DIN_RAIL
10
35
20
487.5
30
0
11
35
21
480
31
0
0
LINE
8
DIN_RAIL
10
35
20
235
30
0
11
720
21
235
31
0
0
LINE
8
DIN_RAIL
10
720
20
235
30
0
11
720
21
242.5
31
0
0
LINE
8
DIN_RAIL
10
720
20
242.5
30
0
11
35
21
242.5
31
0
0
LINE
8
DIN_RAIL
10
35
20
242.5
30
0
11
35
21
235
31
0
0
LINE
8
DIN_RAIL
10
35
20
60
30
0
11
720
21
60
31
0
0
LINE
8
DIN_RAIL
10
720
20
60
30
0
11
720
21
67.5
31
0
0
LINE
8
DIN_RAIL
10
720
20
67.5
30
0
11
35
21
67.5
31
0
0
LINE
8
DIN_RAIL
10
35
20
67.5
30
0
11
35
21
60
31
0
0
LINE
8
WIRE_DUCT
10
25
20
25
30
0
11
40
21
25
31
0
0
LINE
8
WIRE_DUCT
10
40
20
25
30
0
11
40
21
725
31
0
0
LINE
8
WIRE_DUCT
10
40
20
725
30
0
11
25
21
725
31
0
0
LINE
8
WIRE_DUCT
10
25
20
725
30
0
11
25
21
25
31
0
0
LINE
8
WIRE_DUCT
10
205
20
25
30
0
11
220
21
25
31
0
0
LINE
8
WIRE_DUCT
10
220
20
25
30
0
11
220
21
725
31
0
0
LINE
8
WIRE_DUCT
10
220
20
725
30
0
11
205
21
725
31
0
0
LINE
8
WIRE_DUCT
10
205
20
725
30
0
11
205
21
25
31
0
0
LINE
8
WIRE_DUCT
10
405
20
25
30
0
11
420
21
25
31
0
0
LINE
8
WIRE_DUCT
10
420
20
25
30
0
11
420
21
725
31
0
0
LINE
8
WIRE_DUCT
10
420
20
725
30
0
11
405
21
725
31
0
0
LINE
8
WIRE_DUCT
10
405
20
725
30
0
11
405
21
25
31
0
0
LINE
8
WIRE_DUCT
10
625
20
25
30
0
11
640
21
25
31
0
0
LINE
8
WIRE_DUCT
10
640
20
25
30
0
11
640
21
725
31
0
0
LINE
8
WIRE_DUCT
10
640
20
725
30
0
11
625
21
725
31
0
0
LINE
8
WIRE_DUCT
10
625
20
725
30
0
11
625
21
25
31
0
0
LINE
8
WIRE_DUCT
10
730
20
25
30
0
11
745
21
25
31
0
0
LINE
8
WIRE_DUCT
10
745
20
25
30
0
11
745
21
725
31
0
0
LINE
8
WIRE_DUCT
10
745
20
725
30
0
11
730
21
725
31
0
0
LINE
8
WIRE_DUCT
10
730
20
725
30
0
11
730
21
25
31
0
0
LINE
8
WIRE_DUCT
10
25
20
35
30
0
11
725
21
35
31
0
0
LINE
8
WIRE_DUCT
10
725
20
35
30
0
11
725
21
50
31
0
0
LINE
8
WIRE_DUCT
10
725
20
50
30
0
11
25
21
50
31
0
0
LINE
8
WIRE_DUCT
10
25
20
50
30
0
11
25
21
35
31
0
0
LINE
8
WIRE_DUCT
10
25
20
180
30
0
11
725
21
180
31
0
0
LINE
8
WIRE_DUCT
10
725
20
180
30
0
11
725
21
195
31
0
0
LINE
8
WIRE_DUCT
10
725
20
195
30
0
11
25
21
195
31
0
0
LINE
8
WIRE_DUCT
10
25
20
195
30
0
11
25
21
180
31
0
0
LINE
8
WIRE_DUCT
10
25
20
350
30
0
11
725
21
350
31
0
0
LINE
8
WIRE_DUCT
10
725
20
350
30
0
11
725
21
365
31
0
0
LINE
8
WIRE_DUCT
10
725
20
365
30
0
11
25
21
365
31
0
0
LINE
8
WIRE_DUCT
10
25
20
365
30
0
11
25
21
350
31
0
0
LINE
8
WIRE_DUCT
10
25
20
610
30
0
11
725
21
610
31
0
0
LINE
8
WIRE_DUCT
10
725
20
610
30
0
11
725
21
625
31
0
0
LINE
8
WIRE_DUCT
10
725
20
625
30
0
11
25
21
625
31
0
0
LINE
8
WIRE_DUCT
10
25
20
625
30
0
11
25
21
610
31
0
0
LINE
8
WIRE_DUCT
10
25
20
730
30
0
11
725
21
730
31
0
0
LINE
8
WIRE_DUCT
10
725
20
730
30
0
11
725
21
745
31
0
0
LINE
8
WIRE_DUCT
10
725
20
745
30
0
11
25
21
745
31
0
0
LINE
8
WIRE_DUCT
10
25
20
745
30
0
11
25
21
730
31
0
0
LINE
8
DEVICES
10
45
20
625
30
0
11
115
21
625
31
0
0
LINE
8
DEVICES
10
115
20
625
30
0
11
115
21
715
31
0
0
LINE
8
DEVICES
10
115
20
715
30
0
11
45
21
715
31
0
0
LINE
8
DEVICES
10
45
20
715
30
0
11
45
21
625
31
0
0
TEXT
8
TEXT
10
47
20
670.0
30
0
40
5
1
QS001
0
LINE
8
DEVICES
10
130
20
650
30
0
11
184
21
650
31
0
0
LINE
8
DEVICES
10
184
20
650
30
0
11
184
21
720
31
0
0
LINE
8
DEVICES
10
184
20
720
30
0
11
130
21
720
31
0
0
LINE
8
DEVICES
10
130
20
720
30
0
11
130
21
650
31
0
0
TEXT
8
TEXT
10
132
20
685.0
30
0
40
5
1
QF001
0
LINE
8
DEVICES
10
195
20
650
30
0
11
249
21
650
31
0
0
LINE
8
DEVICES
10
249
20
650
30
0
11
249
21
720
31
0
0
LINE
8
DEVICES
10
249
20
720
30
0
11
195
21
720
31
0
0
LINE
8
DEVICES
10
195
20
720
30
0
11
195
21
650
31
0
0
TEXT
8
TEXT
10
197
20
685.0
30
0
40
5
1
QF002
0
LINE
8
DEVICES
10
260
20
650
30
0
11
314
21
650
31
0
0
LINE
8
DEVICES
10
314
20
650
30
0
11
314
21
720
31
0
0
LINE
8
DEVICES
10
314
20
720
30
0
11
260
21
720
31
0
0
LINE
8
DEVICES
10
260
20
720
30
0
11
260
21
650
31
0
0
TEXT
8
TEXT
10
262
20
685.0
30
0
40
5
1
QF003
0
LINE
8
DEVICES
10
325
20
650
30
0
11
343
21
650
31
0
0
LINE
8
DEVICES
10
343
20
650
30
0
11
343
21
720
31
0
0
LINE
8
DEVICES
10
343
20
720
30
0
11
325
21
720
31
0
0
LINE
8
DEVICES
10
325
20
720
30
0
11
325
21
650
31
0
0
TEXT
8
TEXT
10
327
20
685.0
30
0
40
5
1
QF004
0
LINE
8
DEVICES
10
350
20
650
30
0
11
386
21
650
31
0
0
LINE
8
DEVICES
10
386
20
650
30
0
11
386
21
720
31
0
0
LINE
8
DEVICES
10
386
20
720
30
0
11
350
21
720
31
0
0
LINE
8
DEVICES
10
350
20
720
30
0
11
350
21
650
31
0
0
TEXT
8
TEXT
10
352
20
685.0
30
0
40
5
1
QF005
0
LINE
8
DEVICES
10
420
20
640
30
0
11
510
21
640
31
0
0
LINE
8
DEVICES
10
510
20
640
30
0
11
510
21
740
31
0
0
LINE
8
DEVICES
10
510
20
740
30
0
11
420
21
740
31
0
0
LINE
8
DEVICES
10
420
20
740
30
0
11
420
21
640
31
0
0
TEXT
8
TEXT
10
422
20
690.0
30
0
40
5
1
KSR001
0
LINE
8
DEVICES
10
520
20
650
30
0
11
574
21
650
31
0
0
LINE
8
DEVICES
10
574
20
650
30
0
11
574
21
740
31
0
0
LINE
8
DEVICES
10
574
20
740
30
0
11
520
21
740
31
0
0
LINE
8
DEVICES
10
520
20
740
30
0
11
520
21
650
31
0
0
TEXT
8
TEXT
10
522
20
695.0
30
0
40
5
1
KM001
0
LINE
8
DEVICES
10
600
20
625
30
0
11
710
21
625
31
0
0
LINE
8
DEVICES
10
710
20
625
30
0
11
710
21
745
31
0
0
LINE
8
DEVICES
10
710
20
745
30
0
11
600
21
745
31
0
0
LINE
8
DEVICES
10
600
20
745
30
0
11
600
21
625
31
0
0
TEXT
8
TEXT
10
602
20
685.0
30
0
40
5
1
PSU001
0
LINE
8
DEVICES
10
45
20
385
30
0
11
190
21
385
31
0
0
LINE
8
DEVICES
10
190
20
385
30
0
11
190
21
590
31
0
0
LINE
8
DEVICES
10
190
20
590
30
0
11
45
21
590
31
0
0
LINE
8
DEVICES
10
45
20
590
30
0
11
45
21
385
31
0
0
TEXT
8
TEXT
10
47
20
487.5
30
0
40
5
1
VFD001
0
LINE
8
CLEARANCE
10
35
20
285
30
0
11
200
21
285
31
0
0
LINE
8
CLEARANCE
10
200
20
285
30
0
11
200
21
690
31
0
0
LINE
8
CLEARANCE
10
200
20
690
30
0
11
35
21
690
31
0
0
LINE
8
CLEARANCE
10
35
20
690
30
0
11
35
21
285
31
0
0
LINE
8
DEVICES
10
220
20
365
30
0
11
385
21
365
31
0
0
LINE
8
DEVICES
10
385
20
365
30
0
11
385
21
590
31
0
0
LINE
8
DEVICES
10
385
20
590
30
0
11
220
21
590
31
0
0
LINE
8
DEVICES
10
220
20
590
30
0
11
220
21
365
31
0
0
TEXT
8
TEXT
10
222
20
477.5
30
0
40
5
1
VFD002
0
LINE
8
CLEARANCE
10
210
20
265
30
0
11
395
21
265
31
0
0
LINE
8
CLEARANCE
10
395
20
265
30
0
11
395
21
690
31
0
0
LINE
8
CLEARANCE
10
395
20
690
30
0
11
210
21
690
31
0
0
LINE
8
CLEARANCE
10
210
20
690
30
0
11
210
21
265
31
0
0
LINE
8
DEVICES
10
430
20
495
30
0
11
520
21
495
31
0
0
LINE
8
DEVICES
10
520
20
495
30
0
11
520
21
595
31
0
0
LINE
8
DEVICES
10
520
20
595
30
0
11
430
21
595
31
0
0
LINE
8
DEVICES
10
430
20
595
30
0
11
430
21
495
31
0
0
TEXT
8
TEXT
10
432
20
545.0
30
0
40
5
1
PLC001
0
LINE
8
DEVICES
10
525
20
495
30
0
11
560
21
495
31
0
0
LINE
8
DEVICES
10
560
20
495
30
0
11
560
21
595
31
0
0
LINE
8
DEVICES
10
560
20
595
30
0
11
525
21
595
31
0
0
LINE
8
DEVICES
10
525
20
595
30
0
11
525
21
495
31
0
0
TEXT
8
TEXT
10
527
20
545.0
30
0
40
5
1
DI001
0
LINE
8
DEVICES
10
565
20
495
30
0
11
600
21
495
31
0
0
LINE
8
DEVICES
10
600
20
495
30
0
11
600
21
595
31
0
0
LINE
8
DEVICES
10
600
20
595
30
0
11
565
21
595
31
0
0
LINE
8
DEVICES
10
565
20
595
30
0
11
565
21
495
31
0
0
TEXT
8
TEXT
10
567
20
545.0
30
0
40
5
1
DI002
0
LINE
8
DEVICES
10
605
20
495
30
0
11
640
21
495
31
0
0
LINE
8
DEVICES
10
640
20
495
30
0
11
640
21
595
31
0
0
LINE
8
DEVICES
10
640
20
595
30
0
11
605
21
595
31
0
0
LINE
8
DEVICES
10
605
20
595
30
0
11
605
21
495
31
0
0
TEXT
8
TEXT
10
607
20
545.0
30
0
40
5
1
DI003
0
LINE
8
DEVICES
10
645
20
495
30
0
11
680
21
495
31
0
0
LINE
8
DEVICES
10
680
20
495
30
0
11
680
21
595
31
0
0
LINE
8
DEVICES
10
680
20
595
30
0
11
645
21
595
31
0
0
LINE
8
DEVICES
10
645
20
595
30
0
11
645
21
495
31
0
0
TEXT
8
TEXT
10
647
20
545.0
30
0
40
5
1
DO001
0
LINE
8
DEVICES
10
685
20
495
30
0
11
720
21
495
31
0
0
LINE
8
DEVICES
10
720
20
495
30
0
11
720
21
595
31
0
0
LINE
8
DEVICES
10
720
20
595
30
0
11
685
21
595
31
0
0
LINE
8
DEVICES
10
685
20
595
30
0
11
685
21
495
31
0
0
TEXT
8
TEXT
10
687
20
545.0
30
0
40
5
1
DO002
0
LINE
8
DEVICES
10
525
20
380
30
0
11
570
21
380
31
0
0
LINE
8
DEVICES
10
570
20
380
30
0
11
570
21
480
31
0
0
LINE
8
DEVICES
10
570
20
480
30
0
11
525
21
480
31
0
0
LINE
8
DEVICES
10
525
20
480
30
0
11
525
21
380
31
0
0
TEXT
8
TEXT
10
527
20
430.0
30
0
40
5
1
AI001
0
LINE
8
DEVICES
10
580
20
380
30
0
11
625
21
380
31
0
0
LINE
8
DEVICES
10
625
20
380
30
0
11
625
21
480
31
0
0
LINE
8
DEVICES
10
625
20
480
30
0
11
580
21
480
31
0
0
LINE
8
DEVICES
10
580
20
480
30
0
11
580
21
380
31
0
0
TEXT
8
TEXT
10
582
20
430.0
30
0
40
5
1
AO001
0
LINE
8
DEVICES
10
650
20
390
30
0
11
720
21
390
31
0
0
LINE
8
DEVICES
10
720
20
390
30
0
11
720
21
470
31
0
0
LINE
8
DEVICES
10
720
20
470
30
0
11
650
21
470
31
0
0
LINE
8
DEVICES
10
650
20
470
30
0
11
650
21
390
31
0
0
TEXT
8
TEXT
10
652
20
430.0
30
0
40
5
1
SW001
0
LINE
8
DEVICES
10
45
20
245
30
0
11
345
21
245
31
0
0
LINE
8
DEVICES
10
345
20
245
30
0
11
345
21
325
31
0
0
LINE
8
DEVICES
10
345
20
325
30
0
11
45
21
325
31
0
0
LINE
8
DEVICES
10
45
20
325
30
0
11
45
21
245
31
0
0
TEXT
8
TEXT
10
47
20
285.0
30
0
40
5
1
KA201-KA208
0
LINE
8
DEVICES
10
365
20
245
30
0
11
635
21
245
31
0
0
LINE
8
DEVICES
10
635
20
245
30
0
11
635
21
325
31
0
0
LINE
8
DEVICES
10
635
20
325
30
0
11
365
21
325
31
0
0
LINE
8
DEVICES
10
365
20
325
30
0
11
365
21
245
31
0
0
TEXT
8
TEXT
10
367
20
285.0
30
0
40
5
1
KA209-KA215
0
LINE
8
DEVICES
10
650
20
245
30
0
11
720
21
245
31
0
0
LINE
8
DEVICES
10
720
20
245
30
0
11
720
21
325
31
0
0
LINE
8
DEVICES
10
720
20
325
30
0
11
650
21
325
31
0
0
LINE
8
DEVICES
10
650
20
325
30
0
11
650
21
245
31
0
0
TEXT
8
TEXT
10
652
20
285.0
30
0
40
5
1
QF101-QF106
0
LINE
8
TERMINALS
10
45
20
70
30
0
11
295
21
70
31
0
0
LINE
8
TERMINALS
10
295
20
70
30
0
11
295
21
160
31
0
0
LINE
8
TERMINALS
10
295
20
160
30
0
11
45
21
160
31
0
0
LINE
8
TERMINALS
10
45
20
160
30
0
11
45
21
70
31
0
0
TEXT
8
TEXT
10
47
20
115.0
30
0
40
5
1
X1/X2/X3/PE001
0
LINE
8
TERMINALS
10
320
20
70
30
0
11
510
21
70
31
0
0
LINE
8
TERMINALS
10
510
20
70
30
0
11
510
21
160
31
0
0
LINE
8
TERMINALS
10
510
20
160
30
0
11
320
21
160
31
0
0
LINE
8
TERMINALS
10
320
20
160
30
0
11
320
21
70
31
0
0
TEXT
8
TEXT
10
322
20
115.0
30
0
40
5
1
X10/X11/X12
0
LINE
8
TERMINALS
10
535
20
70
30
0
11
720
21
70
31
0
0
LINE
8
TERMINALS
10
720
20
70
30
0
11
720
21
160
31
0
0
LINE
8
TERMINALS
10
720
20
160
30
0
11
535
21
160
31
0
0
LINE
8
TERMINALS
10
535
20
160
30
0
11
535
21
70
31
0
0
TEXT
8
TEXT
10
537
20
115.0
30
0
40
5
1
X13/X14/X15/X16
0
LINE
8
DIMENSIONS
10
0
20
-20
30
0
11
750
21
-20
31
0
0
LINE
8
DIMENSIONS
10
0
20
-25
30
0
11
0
21
-15
31
0
0
LINE
8
DIMENSIONS
10
750
20
-25
30
0
11
750
21
-15
31
0
0
TEXT
8
DIMENSIONS
10
360
20
-35
30
0
40
7
1
750 mm
0
LINE
8
DIMENSIONS
10
-20
20
0
30
0
11
-20
21
750
31
0
0
LINE
8
DIMENSIONS
10
-25
20
0
30
0
11
-15
21
0
31
0
0
LINE
8
DIMENSIONS
10
-25
20
750
30
0
11
-15
21
750
31
0
0
TEXT
8
DIMENSIONS
10
-45
20
360
30
0
40
7
1
750 mm
0
TEXT
8
TEXT
10
0
20
770
30
0
40
8
1
FC01 MOUNTING PLATE - UNITS mm - ORIGIN LOWER LEFT - REV A
0
TEXT
8
TEXT
10
0
20
785
30
0
40
6
1
FICTIONAL CONCEPT DESIGN - NOT FOR CONSTRUCTION
0
ENDSEC
0
EOF
